<?xml version="1.0" encoding="UTF-8" standalone="no"?>
<!-- Created with Inkscape (http://www.inkscape.org/) -->

<svg
   width="256"
   height="256"
   viewBox="0 0 67.733332 67.733333"
   version="1.1"
   id="svg783"
   sodipodi:docname="rust-vis.svg"
   inkscape:version="1.2.2 (b0a8486541, 2022-12-01)"
   inkscape:export-filename="rust-vis.png"
   inkscape:export-xdpi="96"
   inkscape:export-ydpi="96"
   xmlns:inkscape="http://www.inkscape.org/namespaces/inkscape"
   xmlns:sodipodi="http://sodipodi.sourceforge.net/DTD/sodipodi-0.dtd"
   xmlns:xlink="http://www.w3.org/1999/xlink"
   xmlns="http://www.w3.org/2000/svg"
   xmlns:svg="http://www.w3.org/2000/svg">
  <sodipodi:namedview
     id="namedview785"
     pagecolor="#ffffff"
     bordercolor="#000000"
     borderopacity="0.25"
     inkscape:showpageshadow="2"
     inkscape:pageopacity="0.0"
     inkscape:pagecheckerboard="0"
     inkscape:deskcolor="#d1d1d1"
     inkscape:document-units="px"
     showgrid="false"
     inkscape:zoom="3.1210938"
     inkscape:cx="123.19399"
     inkscape:cy="128"
     inkscape:window-width="1920"
     inkscape:window-height="1008"
     inkscape:window-x="0"
     inkscape:window-y="0"
     inkscape:window-maximized="1"
     inkscape:current-layer="text789" />
  <defs
     id="defs780">
    <color-profile
       name="Samsung-Electric-Company-31-"
       xlink:href="../../../../.local/share/icc/edid-64641c58e8058ecdf21a474c2842ae92.icc"
       id="color-profile1854" />
  </defs>
  <g
     inkscape:label="Layer 1"
     inkscape:groupmode="layer"
     id="layer1">
    <g
       aria-label="V"
       transform="scale(1.1546824,0.866039)"
       id="text789"
       style="font-size:75.2567px;font-family:MOESongUN;-inkscape-font-specification:MOESongUN;stroke-width:1.1759">
      <rect
         style="fill:#ffffff;fill-opacity:1;stroke-width:1.08184"
         id="rect1652"
         width="58.65971"
         height="78.210487"
         x="-9.2915639e-07"
         y="1.3410303e-07" />
      <path
         d="m 8.5129986,14.834224 c 0,-0.857417 0.2694738,-1.629092 0.8084215,-2.315026 0.5634453,-0.710431 1.2738759,-1.065646 2.1312929,-1.065646 0.808422,0 1.5556,0.281723 2.241533,0.845168 0.710431,0.587943 1.23713,1.433111 1.580097,2.535504 L 29.348227,55.549274 43.64259,14.687238 c 0.612441,-1.763829 1.800575,-2.645743 3.564404,-2.645743 1.95981,0 4.995374,0.588468 4.995374,2.744259 L 51.357736,17.699816 33.206603,63.52325 c -0.318469,0.808421 -0.820671,1.690336 -1.506604,2.645743 -0.563445,0.391962 -1.298374,0.587943 -2.204786,0.587943 -1.739331,0 -2.964213,-0.979905 -3.674644,-2.939715 z"
         style="font-family:UnDinaru;-inkscape-font-specification:UnDinaru;fill:#8c0cff"
         id="path1583"
         sodipodi:nodetypes="ccsccccsccccscc" />
    </g>
  </g>
</svg>
